<?xml version="1.0" encoding="utf-8"?>
<!-- Generator: Adobe Illustrator 22.1.0, SVG Export Plug-In . SVG Version: 6.00 Build 0)  -->
<svg version="1.1" id="Слой_1" xmlns="http://www.w3.org/2000/svg" xmlns:xlink="http://www.w3.org/1999/xlink" x="0px" y="0px"
	 viewBox="0 0 14 10" style="enable-background:new 0 0 14 10;" xml:space="preserve">
<style type="text/css">
	.st0{fill:#828A99;}
</style>
<path class="st0" d="M7,10c-4.2,0-7-4-7-5s2.8-5,7-5s7,4,7,5S11.2,10,7,10z M7,8.5c1.9,0,3.5-1.6,3.5-3.5S8.9,1.5,7,1.5
	S3.5,3.1,3.5,5S5.1,8.5,7,8.5z M7,6.6C6.1,6.6,5.4,5.9,5.4,5S6.1,3.4,7,3.4S8.6,4.1,8.6,5S7.9,6.6,7,6.6z"/>
</svg>
